<svg version="1.1" xmlns="http://www.w3.org/2000/svg" xmlns:xlink="http://www.w3.org/1999/xlink" viewBox="0 0 17.5098 14.2676">
 <g>
  <rect height="14.2676" opacity="0" width="17.5098" x="0" y="0"/>
  <g transform="translate(1.313,1.070) scale(0.85)">
   <path d="M2.4e-05 11.6992C2.4e-05 13.3398 0.8301 14.1601 2.49026 14.1601L15.3028 14.1601C16.6895 14.1601 17.5098 13.3398 17.5098 11.6992L17.5098 5.48828L2.4e-05 5.48828ZM2.4e-05 4.35546L17.5098 4.35546L17.5098 3.84764C17.5098 2.20702 16.6797 1.39648 15.0196 1.39648L7.7051 1.39648C7.22658 1.39648 6.91408 1.25976 6.543 0.95702L6.05472 0.5664C5.5469 0.14648 5.12698 0 4.3848 0L2.1973 0C0.82034 0 2.4e-05 0.80078 2.4e-05 2.43164Z" fill="#007aff"/>
  </g>
 </g>
</svg>